<mxfile host="app.diagrams.net" agent="Mozilla/5.0 (Windows NT 10.0; Win64; x64) AppleWebKit/537.36 (KHTML, like Gecko) Chrome/138.0.0.0 Safari/537.36" version="28.0.7">
  <diagram name="Page-1" id="4XpvYEnxKqE5wVb6b6y6">
    <mxGraphModel dx="1226" dy="701" grid="1" gridSize="10" guides="1" tooltips="1" connect="1" arrows="1" fold="1" page="1" pageScale="1" pageWidth="850" pageHeight="1100" math="0" shadow="0">
      <root>
        <mxCell id="0" />
        <mxCell id="1" parent="0" />
        <mxCell id="W0GhNJBSpPCsPSRjWhfn-2" value="&lt;b&gt;&lt;font style=&quot;font-size: 18px;&quot;&gt;STUDENT INFORMATION SYSTEM&lt;/font&gt;&lt;/b&gt;" style="rounded=0;whiteSpace=wrap;html=1;fillColor=#dae8fc;strokeColor=#6c8ebf;" vertex="1" parent="1">
          <mxGeometry x="115" y="30" width="620" height="60" as="geometry" />
        </mxCell>
        <mxCell id="W0GhNJBSpPCsPSRjWhfn-5" value="" style="edgeStyle=orthogonalEdgeStyle;rounded=0;orthogonalLoop=1;jettySize=auto;html=1;" edge="1" parent="1" source="W0GhNJBSpPCsPSRjWhfn-3" target="W0GhNJBSpPCsPSRjWhfn-4">
          <mxGeometry relative="1" as="geometry" />
        </mxCell>
        <mxCell id="W0GhNJBSpPCsPSRjWhfn-8" value="" style="edgeStyle=orthogonalEdgeStyle;rounded=0;orthogonalLoop=1;jettySize=auto;html=1;" edge="1" parent="1" source="W0GhNJBSpPCsPSRjWhfn-3" target="W0GhNJBSpPCsPSRjWhfn-7">
          <mxGeometry relative="1" as="geometry" />
        </mxCell>
        <mxCell id="W0GhNJBSpPCsPSRjWhfn-3" value="&lt;b&gt;&lt;font style=&quot;font-size: 14px;&quot;&gt;ADMIN&lt;/font&gt;&lt;/b&gt;" style="rounded=0;whiteSpace=wrap;html=1;fillColor=#fad9d5;strokeColor=#ae4132;" vertex="1" parent="1">
          <mxGeometry x="70" y="150" width="150" height="70" as="geometry" />
        </mxCell>
        <mxCell id="W0GhNJBSpPCsPSRjWhfn-12" value="" style="edgeStyle=orthogonalEdgeStyle;rounded=0;orthogonalLoop=1;jettySize=auto;html=1;" edge="1" parent="1" source="W0GhNJBSpPCsPSRjWhfn-4" target="W0GhNJBSpPCsPSRjWhfn-11">
          <mxGeometry relative="1" as="geometry" />
        </mxCell>
        <mxCell id="W0GhNJBSpPCsPSRjWhfn-4" value="&lt;b&gt;LOGIN TO&lt;/b&gt;&lt;div&gt;&lt;b&gt;SYSTEMS&lt;/b&gt;&lt;/div&gt;" style="ellipse;whiteSpace=wrap;html=1;fillColor=#fad9d5;strokeColor=#ae4132;rounded=0;" vertex="1" parent="1">
          <mxGeometry x="335" y="145" width="80" height="80" as="geometry" />
        </mxCell>
        <mxCell id="W0GhNJBSpPCsPSRjWhfn-10" value="" style="edgeStyle=orthogonalEdgeStyle;rounded=0;orthogonalLoop=1;jettySize=auto;html=1;" edge="1" parent="1" source="W0GhNJBSpPCsPSRjWhfn-7" target="W0GhNJBSpPCsPSRjWhfn-9">
          <mxGeometry relative="1" as="geometry" />
        </mxCell>
        <mxCell id="W0GhNJBSpPCsPSRjWhfn-7" value="&lt;b&gt;FORGET&lt;/b&gt;&lt;div&gt;&lt;b&gt;PASSWORD&lt;/b&gt;&lt;/div&gt;" style="ellipse;whiteSpace=wrap;html=1;fillColor=#fad9d5;strokeColor=#ae4132;rounded=0;" vertex="1" parent="1">
          <mxGeometry x="105" y="295" width="80" height="80" as="geometry" />
        </mxCell>
        <mxCell id="W0GhNJBSpPCsPSRjWhfn-9" value="&lt;b&gt;SEND EMAIL TO USER&lt;/b&gt;" style="ellipse;whiteSpace=wrap;html=1;fillColor=#fad9d5;strokeColor=#ae4132;rounded=0;" vertex="1" parent="1">
          <mxGeometry x="105" y="455" width="80" height="80" as="geometry" />
        </mxCell>
        <mxCell id="W0GhNJBSpPCsPSRjWhfn-11" value="&lt;font style=&quot;font-size: 10px;&quot;&gt;&lt;b&gt;CHECK&lt;/b&gt;&lt;/font&gt;&lt;div&gt;&lt;span style=&quot;font-size: 10px;&quot;&gt;&lt;b&gt;CREDENTIALS&lt;/b&gt;&lt;/span&gt;&lt;/div&gt;" style="ellipse;whiteSpace=wrap;html=1;fillColor=#fad9d5;strokeColor=#ae4132;rounded=0;" vertex="1" parent="1">
          <mxGeometry x="335" y="305" width="80" height="80" as="geometry" />
        </mxCell>
        <mxCell id="W0GhNJBSpPCsPSRjWhfn-17" value="" style="edgeStyle=orthogonalEdgeStyle;rounded=0;orthogonalLoop=1;jettySize=auto;html=1;" edge="1" parent="1" source="W0GhNJBSpPCsPSRjWhfn-13" target="W0GhNJBSpPCsPSRjWhfn-16">
          <mxGeometry relative="1" as="geometry" />
        </mxCell>
        <mxCell id="W0GhNJBSpPCsPSRjWhfn-13" value="&lt;font style=&quot;font-size: 9px;&quot;&gt;&lt;b&gt;CHECK ROLES&lt;/b&gt;&lt;/font&gt;&lt;div&gt;&lt;font style=&quot;font-size: 9px;&quot;&gt;&lt;b&gt;TO ACCESS&lt;/b&gt;&lt;/font&gt;&lt;/div&gt;" style="ellipse;whiteSpace=wrap;html=1;fillColor=#fad9d5;strokeColor=#ae4132;rounded=0;rotation=0;" vertex="1" parent="1">
          <mxGeometry x="490" y="190" width="80" height="80" as="geometry" />
        </mxCell>
        <mxCell id="W0GhNJBSpPCsPSRjWhfn-15" value="" style="endArrow=classic;html=1;rounded=0;" edge="1" parent="1">
          <mxGeometry width="50" height="50" relative="1" as="geometry">
            <mxPoint x="410" y="320" as="sourcePoint" />
            <mxPoint x="490" y="250" as="targetPoint" />
          </mxGeometry>
        </mxCell>
        <mxCell id="W0GhNJBSpPCsPSRjWhfn-16" value="&lt;font style=&quot;&quot;&gt;&lt;b style=&quot;&quot;&gt;&lt;font style=&quot;font-size: 10px;&quot;&gt;MANAGE&amp;nbsp;&lt;/font&gt;&lt;/b&gt;&lt;/font&gt;&lt;div&gt;&lt;font style=&quot;&quot;&gt;&lt;font size=&quot;1&quot;&gt;&lt;b&gt;MODULES&lt;/b&gt;&amp;nbsp;&lt;/font&gt;&lt;/font&gt;&lt;/div&gt;" style="ellipse;whiteSpace=wrap;html=1;fillColor=#fad9d5;strokeColor=#ae4132;rounded=0;" vertex="1" parent="1">
          <mxGeometry x="490" y="350" width="80" height="80" as="geometry" />
        </mxCell>
        <mxCell id="W0GhNJBSpPCsPSRjWhfn-18" value="&lt;b&gt;MANAGE SYSTEM&amp;nbsp;&lt;/b&gt;&lt;div&gt;&lt;b&gt;ADMINS&lt;/b&gt;&lt;/div&gt;" style="whiteSpace=wrap;html=1;fillColor=#fad9d5;strokeColor=#ae4132;rounded=0;" vertex="1" parent="1">
          <mxGeometry x="50" y="620" width="120" height="60" as="geometry" />
        </mxCell>
        <mxCell id="W0GhNJBSpPCsPSRjWhfn-21" value="&lt;b&gt;MANAGE ROLES&lt;/b&gt;&lt;div&gt;&lt;b&gt;OF USERS&lt;/b&gt;&lt;/div&gt;" style="whiteSpace=wrap;html=1;fillColor=#fad9d5;strokeColor=#ae4132;rounded=0;" vertex="1" parent="1">
          <mxGeometry x="250" y="620" width="120" height="60" as="geometry" />
        </mxCell>
        <mxCell id="W0GhNJBSpPCsPSRjWhfn-23" value="&lt;b&gt;MANAGE USERS&amp;nbsp;&lt;/b&gt;&lt;div&gt;&lt;b&gt;PERMISSIONS&lt;/b&gt;&lt;/div&gt;" style="whiteSpace=wrap;html=1;fillColor=#fad9d5;strokeColor=#ae4132;rounded=0;" vertex="1" parent="1">
          <mxGeometry x="450" y="620" width="120" height="60" as="geometry" />
        </mxCell>
        <mxCell id="W0GhNJBSpPCsPSRjWhfn-25" value="" style="endArrow=classic;html=1;rounded=0;entryX=0.583;entryY=0;entryDx=0;entryDy=0;entryPerimeter=0;" edge="1" parent="1" target="W0GhNJBSpPCsPSRjWhfn-23">
          <mxGeometry width="50" height="50" relative="1" as="geometry">
            <mxPoint x="520" y="430" as="sourcePoint" />
            <mxPoint x="520" y="540" as="targetPoint" />
          </mxGeometry>
        </mxCell>
        <mxCell id="W0GhNJBSpPCsPSRjWhfn-26" value="" style="endArrow=classic;html=1;rounded=0;entryX=0.5;entryY=0;entryDx=0;entryDy=0;exitX=0;exitY=1;exitDx=0;exitDy=0;" edge="1" parent="1" source="W0GhNJBSpPCsPSRjWhfn-16" target="W0GhNJBSpPCsPSRjWhfn-21">
          <mxGeometry width="50" height="50" relative="1" as="geometry">
            <mxPoint x="440" y="410" as="sourcePoint" />
            <mxPoint x="440" y="600" as="targetPoint" />
          </mxGeometry>
        </mxCell>
        <mxCell id="W0GhNJBSpPCsPSRjWhfn-27" value="" style="endArrow=classic;html=1;rounded=0;entryX=0.5;entryY=0;entryDx=0;entryDy=0;" edge="1" parent="1" source="W0GhNJBSpPCsPSRjWhfn-16">
          <mxGeometry width="50" height="50" relative="1" as="geometry">
            <mxPoint x="322" y="418" as="sourcePoint" />
            <mxPoint x="130" y="620" as="targetPoint" />
          </mxGeometry>
        </mxCell>
        <mxCell id="W0GhNJBSpPCsPSRjWhfn-28" value="&lt;b&gt;MANAGE ATTENDANCE DETAILS&lt;/b&gt;" style="whiteSpace=wrap;html=1;fillColor=#fad9d5;strokeColor=#ae4132;rounded=0;" vertex="1" parent="1">
          <mxGeometry x="630" y="225" width="180" height="60" as="geometry" />
        </mxCell>
        <mxCell id="W0GhNJBSpPCsPSRjWhfn-32" value="&lt;b&gt;MANAGE TIMETABLE DETAILS&lt;/b&gt;" style="whiteSpace=wrap;html=1;fillColor=#fad9d5;strokeColor=#ae4132;rounded=0;" vertex="1" parent="1">
          <mxGeometry x="630" y="155" width="180" height="60" as="geometry" />
        </mxCell>
        <mxCell id="W0GhNJBSpPCsPSRjWhfn-34" value="&lt;b&gt;MANAGE CLASS DETAILS&lt;/b&gt;" style="whiteSpace=wrap;html=1;fillColor=#fad9d5;strokeColor=#ae4132;rounded=0;" vertex="1" parent="1">
          <mxGeometry x="630" y="295" width="180" height="60" as="geometry" />
        </mxCell>
        <mxCell id="W0GhNJBSpPCsPSRjWhfn-36" value="&lt;b&gt;MANAGE STUDENT&amp;nbsp;&lt;/b&gt;&lt;div&gt;&lt;b&gt;DETAILS&lt;/b&gt;&lt;/div&gt;" style="whiteSpace=wrap;html=1;fillColor=#fad9d5;strokeColor=#ae4132;rounded=0;" vertex="1" parent="1">
          <mxGeometry x="630" y="370" width="180" height="60" as="geometry" />
        </mxCell>
        <mxCell id="W0GhNJBSpPCsPSRjWhfn-38" value="&lt;b&gt;MANAGE FEES DETAILS&lt;/b&gt;" style="whiteSpace=wrap;html=1;fillColor=#fad9d5;strokeColor=#ae4132;rounded=0;" vertex="1" parent="1">
          <mxGeometry x="630" y="440" width="180" height="60" as="geometry" />
        </mxCell>
        <mxCell id="W0GhNJBSpPCsPSRjWhfn-40" value="&lt;b&gt;MANAGE TEACHER&amp;nbsp;&lt;/b&gt;&lt;div&gt;&lt;b&gt;PROFILES&lt;/b&gt;&lt;/div&gt;" style="whiteSpace=wrap;html=1;fillColor=#fad9d5;strokeColor=#ae4132;rounded=0;" vertex="1" parent="1">
          <mxGeometry x="630" y="520" width="180" height="60" as="geometry" />
        </mxCell>
        <mxCell id="W0GhNJBSpPCsPSRjWhfn-42" value="&lt;b&gt;MANAGE PROFILES&lt;/b&gt;" style="whiteSpace=wrap;html=1;fillColor=#fad9d5;strokeColor=#ae4132;rounded=0;" vertex="1" parent="1">
          <mxGeometry x="630" y="590" width="180" height="60" as="geometry" />
        </mxCell>
        <mxCell id="W0GhNJBSpPCsPSRjWhfn-44" value="" style="endArrow=classic;html=1;rounded=0;exitX=0.66;exitY=0.028;exitDx=0;exitDy=0;exitPerimeter=0;entryX=0;entryY=0.75;entryDx=0;entryDy=0;" edge="1" parent="1" source="W0GhNJBSpPCsPSRjWhfn-16" target="W0GhNJBSpPCsPSRjWhfn-32">
          <mxGeometry width="50" height="50" relative="1" as="geometry">
            <mxPoint x="550" y="355" as="sourcePoint" />
            <mxPoint x="627" y="190" as="targetPoint" />
          </mxGeometry>
        </mxCell>
        <mxCell id="W0GhNJBSpPCsPSRjWhfn-45" value="" style="endArrow=classic;html=1;rounded=0;entryX=-0.018;entryY=0.38;entryDx=0;entryDy=0;entryPerimeter=0;exitX=1;exitY=0;exitDx=0;exitDy=0;" edge="1" parent="1" source="W0GhNJBSpPCsPSRjWhfn-16">
          <mxGeometry width="50" height="50" relative="1" as="geometry">
            <mxPoint x="553" y="433.5" as="sourcePoint" />
            <mxPoint x="630" y="256.5" as="targetPoint" />
          </mxGeometry>
        </mxCell>
        <mxCell id="W0GhNJBSpPCsPSRjWhfn-46" value="" style="endArrow=classic;html=1;rounded=0;entryX=-0.004;entryY=0.62;entryDx=0;entryDy=0;entryPerimeter=0;exitX=0.91;exitY=0.297;exitDx=0;exitDy=0;exitPerimeter=0;" edge="1" parent="1" source="W0GhNJBSpPCsPSRjWhfn-16" target="W0GhNJBSpPCsPSRjWhfn-34">
          <mxGeometry width="50" height="50" relative="1" as="geometry">
            <mxPoint x="570" y="370" as="sourcePoint" />
            <mxPoint x="642" y="279.5" as="targetPoint" />
          </mxGeometry>
        </mxCell>
        <mxCell id="W0GhNJBSpPCsPSRjWhfn-48" value="" style="endArrow=classic;html=1;rounded=0;entryX=-0.018;entryY=0.38;entryDx=0;entryDy=0;entryPerimeter=0;exitX=0.74;exitY=0.927;exitDx=0;exitDy=0;exitPerimeter=0;" edge="1" parent="1" source="W0GhNJBSpPCsPSRjWhfn-16">
          <mxGeometry width="50" height="50" relative="1" as="geometry">
            <mxPoint x="558" y="640.5" as="sourcePoint" />
            <mxPoint x="630" y="535" as="targetPoint" />
          </mxGeometry>
        </mxCell>
        <mxCell id="W0GhNJBSpPCsPSRjWhfn-49" value="" style="endArrow=classic;html=1;rounded=0;entryX=-0.018;entryY=0.38;entryDx=0;entryDy=0;entryPerimeter=0;" edge="1" parent="1" source="W0GhNJBSpPCsPSRjWhfn-16">
          <mxGeometry width="50" height="50" relative="1" as="geometry">
            <mxPoint x="558" y="575.5" as="sourcePoint" />
            <mxPoint x="630" y="470" as="targetPoint" />
          </mxGeometry>
        </mxCell>
        <mxCell id="W0GhNJBSpPCsPSRjWhfn-50" value="" style="endArrow=classic;html=1;rounded=0;entryX=-0.018;entryY=0.38;entryDx=0;entryDy=0;entryPerimeter=0;exitX=1;exitY=0.5;exitDx=0;exitDy=0;" edge="1" parent="1" source="W0GhNJBSpPCsPSRjWhfn-16">
          <mxGeometry width="50" height="50" relative="1" as="geometry">
            <mxPoint x="558" y="490.5" as="sourcePoint" />
            <mxPoint x="630" y="385" as="targetPoint" />
          </mxGeometry>
        </mxCell>
        <mxCell id="W0GhNJBSpPCsPSRjWhfn-51" value="" style="endArrow=classic;html=1;rounded=0;entryX=-0.018;entryY=0.38;entryDx=0;entryDy=0;entryPerimeter=0;exitX=0.63;exitY=1.007;exitDx=0;exitDy=0;exitPerimeter=0;" edge="1" parent="1" source="W0GhNJBSpPCsPSRjWhfn-16">
          <mxGeometry width="50" height="50" relative="1" as="geometry">
            <mxPoint x="558" y="715.5" as="sourcePoint" />
            <mxPoint x="630" y="610" as="targetPoint" />
          </mxGeometry>
        </mxCell>
      </root>
    </mxGraphModel>
  </diagram>
</mxfile>
